<?xml version="1.0" encoding="UTF-8"?>
<svg version="1.1" xmlns="http://www.w3.org/2000/svg" width="204" height="192">
<path d="M0 0 C67.32 0 134.64 0 204 0 C204 63.36 204 126.72 204 192 C136.68 192 69.36 192 0 192 C0 128.64 0 65.28 0 0 Z " fill="#FEFEFE" transform="translate(0,0)"/>
<path d="M0 0 C24.42 0 48.84 0 74 0 C69.31906515 9.3618697 64.68239745 18.52231849 59.49609375 27.578125 C56.01530222 33.70386475 52.68047175 39.91041309 49.33691406 46.11181641 C48.62293457 47.42931885 48.62293457 47.42931885 47.89453125 48.7734375 C47.48050049 49.54091309 47.06646973 50.30838867 46.63989258 51.09912109 C46.09872803 52.05641113 45.55756348 53.01370117 45 54 C44.69153137 54.83101227 44.38306274 55.66202454 44.06524658 56.51821899 C42.68692316 59.64397652 41.50409613 61.65708937 39 64 C33.48567076 65.43400267 28.10420878 65.16685298 22.4453125 64.9765625 C20.81725415 64.95789648 19.18913938 64.94366881 17.56100464 64.9336853 C13.2884033 64.89561414 9.01923586 64.79749887 4.74798584 64.68664551 C0.38454652 64.5840958 -3.97945137 64.5386238 -8.34375 64.48828125 C-16.8974043 64.38123203 -25.44827432 64.21071366 -34 64 C-30.65152835 55.43736326 -26.01877649 47.47394533 -21.046875 39.7578125 C-19.80958235 37.76814637 -19.80958235 37.76814637 -18.5 34.5 C-17.34902587 31.81439369 -16.25463412 29.72538904 -14.6875 27.3125 C-11.91214072 23.02027768 -9.73224203 18.49664973 -7.48828125 13.91015625 C-5.83421909 10.67583523 -3.98945219 7.64432126 -1.98046875 4.62109375 C-0.82709132 2.84857555 -0.82709132 2.84857555 0 0 Z " fill="#363384" transform="translate(43,63)"/>
<path d="M0 0 C1.49249268 0.01571045 1.49249268 0.01571045 3.01513672 0.03173828 C3.98467285 0.0367334 4.95420898 0.04172852 5.953125 0.046875 C7.18788574 0.06508301 8.42264648 0.08329102 9.69482422 0.10205078 C13.61357422 0.14330078 17.53232422 0.18455078 21.56982422 0.22705078 C21.56982422 9.13705078 21.56982422 18.04705078 21.56982422 27.22705078 C22.22982422 27.22705078 22.88982422 27.22705078 23.56982422 27.22705078 C23.91013672 25.74205078 23.91013672 25.74205078 24.25732422 24.22705078 C25.32874366 20.45048721 27.12259826 17.53498128 29.27294922 14.27783203 C30.93703007 11.64637888 32.26173114 8.90455986 33.57763672 6.08642578 C34.7609416 3.86889381 35.86671022 2.09115091 37.56982422 0.22705078 C39.83813477 -0.22705078 39.83813477 -0.22705078 42.45654297 -0.16357422 C43.39433594 -0.15068359 44.33212891 -0.13779297 45.29833984 -0.12451172 C46.27480469 -0.09099609 47.25126953 -0.05748047 48.25732422 -0.02294922 C49.24539062 -0.00490234 50.23345703 0.01314453 51.25146484 0.03173828 C53.69189264 0.07889631 56.13037191 0.14469036 58.56982422 0.22705078 C59.6680979 21.56744318 59.67132939 42.86585089 59.56982422 64.22705078 C52.30982422 64.22705078 45.04982422 64.22705078 37.56982422 64.22705078 C37.23982422 55.31705078 36.90982422 46.40705078 36.56982422 37.22705078 C33.41327826 43.86760531 33.41327826 43.86760531 30.25805664 50.50878906 C29.66021362 51.7653833 29.66021362 51.7653833 29.05029297 53.04736328 C28.64705811 53.89572754 28.24382324 54.7440918 27.82836914 55.61816406 C26.43732966 58.5017039 25.00159185 61.36351551 23.56982422 64.22705078 C16.63982422 64.22705078 9.70982422 64.22705078 2.56982422 64.22705078 C2.07482422 51.35705078 2.07482422 51.35705078 1.56982422 38.22705078 C-2.72017578 46.47705078 -7.01017578 54.72705078 -11.43017578 63.22705078 C-19.68017578 63.22705078 -27.93017578 63.22705078 -36.43017578 63.22705078 C-33.09309713 54.32817438 -33.09309713 54.32817438 -31.11767578 51.47705078 C-28.33060132 47.21692795 -26.13971353 42.73209699 -23.89501953 38.16845703 C-20.2516167 30.85250414 -16.05693698 23.85120985 -11.88330078 16.82861328 C-10.33021786 14.23807805 -10.33021786 14.23807805 -9.43017578 11.22705078 C-8.77017578 11.22705078 -8.11017578 11.22705078 -7.43017578 11.22705078 C-7.23681641 10.60056641 -7.04345703 9.97408203 -6.84423828 9.32861328 C-6.45365234 8.10271484 -6.45365234 8.10271484 -6.05517578 6.85205078 C-5.79994141 6.03994141 -5.54470703 5.22783203 -5.28173828 4.39111328 C-4.09557691 1.37673988 -3.28666276 0.30707217 0 0 Z " fill="#E6E6E7" transform="translate(127.43017578125,62.77294921875)"/>
<path d="M0 0 C-4.22416894 8.65551783 -8.57727859 17.19449021 -13.35449219 25.55883789 C-15.62621426 29.54207189 -17.84872386 33.54696729 -20.02734375 37.58203125 C-20.81286621 39.03585205 -20.81286621 39.03585205 -21.61425781 40.51904297 C-22.63400352 42.41073138 -23.65048698 44.30418344 -24.66308594 46.19970703 C-25.61442507 47.96164893 -26.58418544 49.71378483 -27.57324219 51.45483398 C-28.52544817 53.15345606 -29.4226962 54.88404966 -30.26269531 56.64086914 C-31.64569749 59.22954595 -32.7893109 61.06257074 -35 63 C-39.18147159 64.07733548 -43.09325776 63.85753171 -47.375 63.5625 C-48.49261719 63.52189453 -49.61023438 63.48128906 -50.76171875 63.43945312 C-53.51228857 63.33366198 -56.25388611 63.18606401 -59 63 C-57.31937535 58.68977333 -55.30676647 54.63711446 -53.125 50.5625 C-52.53887939 49.46301025 -52.53887939 49.46301025 -51.94091797 48.34130859 C-50.63174844 45.89177947 -49.31675097 43.44546164 -48 41 C-47.29810547 39.69506592 -47.29810547 39.69506592 -46.58203125 38.36376953 C-46.10121094 37.47157715 -45.62039062 36.57938477 -45.125 35.66015625 C-44.39059692 34.29709351 -44.39059692 34.29709351 -43.64135742 32.90649414 C-42.6266708 31.04522789 -41.59802842 29.19150515 -40.5559082 27.34545898 C-37.97535307 22.76428035 -35.63593243 18.2543898 -33.66796875 13.375 C-26.63256876 -2.91649162 -16.53100109 -2.35069503 0 0 Z " fill="#C4292F" transform="translate(117,63)"/>
<path d="M0 0 C7.92 0 15.84 0 24 0 C18.21024734 11.92689048 11.89190115 23.47955263 5.3671875 35.01953125 C2.18636217 40.64902959 -0.9152074 46.31727198 -4 52 C-5.98 55.63 -7.96 59.26 -10 63 C6.17 63 22.34 63 39 63 C39 63.33 39 63.66 39 64 C14.91 64 -9.18 64 -34 64 C-30.57991495 55.44978737 -26.02920773 47.49013407 -21.046875 39.7578125 C-19.80958235 37.76814637 -19.80958235 37.76814637 -18.5 34.5 C-17.34902587 31.81439369 -16.25463412 29.72538904 -14.6875 27.3125 C-11.91214072 23.02027768 -9.73224203 18.49664973 -7.48828125 13.91015625 C-5.83421909 10.67583523 -3.98945219 7.64432126 -1.98046875 4.62109375 C-0.82709132 2.84857555 -0.82709132 2.84857555 0 0 Z " fill="#39A1D0" transform="translate(43,63)"/>
</svg>
