<?xml version="1.0" encoding="UTF-8"?>
<svg version="1.1" xmlns="http://www.w3.org/2000/svg" width="204" height="192">
<path d="M0 0 C67.32 0 134.64 0 204 0 C204 63.36 204 126.72 204 192 C136.68 192 69.36 192 0 192 C0 128.64 0 65.28 0 0 Z " fill="#FCFCFC" transform="translate(0,0)"/>
<path d="M0 0 C1.12599609 -0.02900391 2.25199219 -0.05800781 3.41210938 -0.08789062 C18.72451017 -0.20235941 33.37261716 6.06534077 44.5 16.625 C57.25766481 30.42410684 62.17145113 45.34368984 61.8359375 63.79296875 C61.10892423 80.56106186 53.72140492 94.83130454 41.5625 106.3125 C29.38971121 116.26851895 17.54089833 120.67647613 1.9375 120.75 C0.72964844 120.78287109 -0.47820312 120.81574219 -1.72265625 120.84960938 C-10.35734464 120.9007297 -16.75474932 119.19107818 -24.4375 115.3125 C-25.26741455 114.91305176 -26.0973291 114.51360352 -26.95239258 114.10205078 C-40.99767077 107.18260215 -50.13715958 94.22644441 -56.4375 80.3125 C-61.10920325 66.54435255 -59.67263965 48.64816638 -54.4375 35.3125 C-46.01776438 18.45121597 -32.45584928 8.42535846 -15.4375 1.3125 C-10.43213631 -0.35595456 -5.24120017 0.04365242 0 0 Z " fill="#0667B1" transform="translate(100.4375,35.6875)"/>
<path d="M0 0 C19.8 0 39.6 0 60 0 C60 17.32248114 54.35482903 31.08807065 42.3828125 43.75 C29.90793309 55.52955826 17.14240881 60 0 60 C0 40.2 0 20.4 0 0 Z " fill="#0567B1" transform="translate(102,96)"/>
<path d="M0 0 C12.7885439 0 12.7885439 0 19.125 2.625 C20.15500122 3.03649292 20.15500122 3.03649292 21.20581055 3.45629883 C26.63738424 5.69948158 31.47320084 8.20839267 36 12 C36.89203125 12.74636719 37.7840625 13.49273437 38.703125 14.26171875 C47.9102754 22.67645047 54.39577312 33.71737769 57 46 C57 49.63 57 53.26 57 57 C38.19 57 19.38 57 0 57 C0 38.19 0 19.38 0 0 Z " fill="#FCFDFD" transform="translate(102,39)"/>
<path d="M0 0 C18.81 0 37.62 0 57 0 C57 18.81 57 37.62 57 57 C39.16820811 57 27.55255683 51.33798321 15 39 C14.42121094 38.43410156 13.84242187 37.86820313 13.24609375 37.28515625 C3.54762024 26.92830073 0 13.75223048 0 0 Z " fill="#FCFDFD" transform="translate(45,96)"/>
<path d="M0 0 C0.33 0 0.66 0 1 0 C1 28.38 1 56.76 1 86 C-20.78 86 -42.56 86 -65 86 C-62.20231582 84.13487722 -59.34903337 82.6428371 -56.35107422 81.13232422 C-47.43126462 76.59513658 -39.61158625 71.48677509 -32 65 C-31.33871094 64.44054687 -30.67742187 63.88109375 -29.99609375 63.3046875 C-12.11297935 46.79081388 -4.23717729 23.2081756 0 0 Z " fill="#FDFDFD" transform="translate(203,106)"/>
<path d="M0 0 C0.33 0 0.66 0 1 0 C1.11480713 0.61294922 1.22961426 1.22589844 1.34790039 1.85742188 C6.86773327 30.69969473 18.52765136 56.05044176 43.42578125 73.44921875 C50.27074649 78.05227246 57.34682443 81.89187359 65 85 C65 85.33 65 85.66 65 86 C43.55 86 22.1 86 0 86 C0 57.62 0 29.24 0 0 Z " fill="#FDFDFD" transform="translate(0,106)"/>
<path d="M0 0 C21.78 0 43.56 0 66 0 C66 29.04 66 58.08 66 88 C65.67 88 65.34 88 65 88 C64.91363281 87.1028125 64.82726562 86.205625 64.73828125 85.28125 C62.15713364 62.35876484 53.04001691 43.4196202 38 26 C37.41863281 25.31679688 36.83726562 24.63359375 36.23828125 23.9296875 C26.31998314 13.18694647 13.19641632 6.71951216 0 1 C0 0.67 0 0.34 0 0 Z " fill="#FDFDFD" transform="translate(138,0)"/>
<path d="M0 0 C21.45 0 42.9 0 65 0 C61.7607148 2.4294639 59.35402284 3.82172998 55.75 5.4375 C30.84308535 17.67729507 13.97936081 39.43673986 4.84375 65.26953125 C4.10823749 67.84014748 3.50616187 70.37530577 3 73 C2.79890625 74.02480469 2.5978125 75.04960938 2.390625 76.10546875 C1.89772984 78.73313281 1.43370956 81.36202541 1 84 C0.67 84 0.34 84 0 84 C0 56.28 0 28.56 0 0 Z " fill="#FDFDFD" transform="translate(0,0)"/>
<path d="M0 0 C0 0.33 0 0.66 0 1 C-1.16015625 1.24234375 -2.3203125 1.4846875 -3.515625 1.734375 C-22.32998954 5.73472449 -38.17722376 11.22174462 -53 24 C-53.68578125 24.54140625 -54.3715625 25.0828125 -55.078125 25.640625 C-71.49408942 38.95435992 -81.52276539 60.42937205 -85 81 C-86.04927251 97.51608056 -85.93973303 113.40820079 -80 129 C-79.6390625 130.06347656 -79.278125 131.12695312 -78.90625 132.22265625 C-70.52498408 154.94187352 -51.74203776 173.0974809 -30.01953125 183.14794922 C-20.50500156 187.16217898 -10.19169948 189.52517524 0 191 C0 191.33 0 191.66 0 192 C-30.14282631 193.65200987 -30.14282631 193.65200987 -44 184 C-45.00675781 183.34128906 -46.01351562 182.68257812 -47.05078125 182.00390625 C-68.74066079 167.09398906 -83.62479646 146.4748987 -90 121 C-90.47566406 119.23849609 -90.47566406 119.23849609 -90.9609375 117.44140625 C-94.66888808 101.91223707 -94.3867376 85.33450883 -90 70 C-89.74476562 68.96359375 -89.48953125 67.9271875 -89.2265625 66.859375 C-85.20634146 51.88497368 -77.01688773 38.68369784 -67 27 C-66.32839844 26.21496094 -65.65679687 25.42992188 -64.96484375 24.62109375 C-58.57622722 17.74009829 -50.85012675 12.41879797 -43.01611328 7.31689453 C-41.32179039 6.21018859 -39.65532376 5.06099982 -37.99609375 3.90234375 C-26.7774607 -2.69776999 -12.53098432 -0.50470762 0 0 Z " fill="#727272" transform="translate(93,0)"/>
<path d="M0 0 C23.40630024 -1.53557089 39.17079211 2.0781853 57.0625 17.39453125 C58.031875 18.25433594 59.00125 19.11414063 60 20 C61.11375 20.96486328 61.11375 20.96486328 62.25 21.94921875 C76.19403444 34.90929914 87.63658211 54.20283387 91 73 C91.20109375 74.10988281 91.4021875 75.21976562 91.609375 76.36328125 C95.99432512 104.42103643 90.90529481 132.74645133 74 156 C71.11474364 159.77342246 68.12018911 163.41880998 65 167 C64.45988281 167.62519531 63.91976562 168.25039062 63.36328125 168.89453125 C57.74886306 174.93321277 50.90733702 179.57577185 44 184 C43.38431152 184.40524902 42.76862305 184.81049805 42.13427734 185.22802734 C28.86374999 193.66095437 15.28314851 192.87843895 0 192 C0 191.67 0 191.34 0 191 C0.61294922 190.89042969 1.22589844 190.78085938 1.85742188 190.66796875 C15.39269722 188.17755908 27.14251626 185.04750271 39 178 C40.51980469 177.13181641 40.51980469 177.13181641 42.0703125 176.24609375 C62.00080484 164.28224668 75.28156812 144.98035294 82 123 C82.26997803 122.12657959 82.53995605 121.25315918 82.81811523 120.35327148 C85.09571369 112.25762248 85.50391781 104.56942764 85.4375 96.1875 C85.43479095 95.52702667 85.43208191 94.86655334 85.42929077 94.18606567 C85.36672145 84.12975947 84.63094984 75.44046959 81 66 C80.63777344 64.90558594 80.27554688 63.81117187 79.90234375 62.68359375 C71.5305318 38.6465608 53.86320624 21.09193542 31.60546875 9.69140625 C24.345753 6.28571078 17.38154373 4.28456158 9.5 2.8125 C8.5821875 2.63525391 7.664375 2.45800781 6.71875 2.27539062 C4.48028125 1.84401904 2.24080567 1.41903066 0 1 C0 0.67 0 0.34 0 0 Z " fill="#727272" transform="translate(111,0)"/>
<path d="M0 0 C3.3125 0.9375 3.3125 0.9375 5.3125 2.9375 C5.4375 5.5625 5.4375 5.5625 5.3125 7.9375 C6.7046875 7.8446875 6.7046875 7.8446875 8.125 7.75 C11.3125 7.9375 11.3125 7.9375 13.25 9 C14.58858219 11.440944 14.44281309 13.23938045 14.0012207 15.94750977 C12.59117183 20.02170627 9.40614417 22.85598961 6.4375 25.875 C5.79941406 26.55884766 5.16132812 27.24269531 4.50390625 27.94726562 C0.99173066 31.61708584 0.99173066 31.61708584 -0.6875 32.9375 C-5.11641454 32.9375 -7.14508089 30.08825437 -10.1875 27.1875 C-10.76886719 26.64867188 -11.35023437 26.10984375 -11.94921875 25.5546875 C-14.82694803 22.85475843 -17.45787125 20.21823945 -19.6875 16.9375 C-17.95977744 15.04033355 -16.23037266 13.14474695 -14.5 11.25 C-14.01724609 10.71955078 -13.53449219 10.18910156 -13.03710938 9.64257812 C-12.06824483 8.58267933 -11.09484931 7.52690439 -10.11694336 6.4753418 C-8.751854 5.00673414 -7.40284133 3.52323185 -6.0546875 2.0390625 C-3.6875 -0.0625 -3.6875 -0.0625 0 0 Z " fill="#747474" transform="translate(47.6875,26.0625)"/>
<path d="M0 0 C6.15234375 -0.09765625 6.15234375 -0.09765625 8 0 C9 1 9 1 9.11352539 3.40844727 C9.10828857 4.45057373 9.10305176 5.4927002 9.09765625 6.56640625 C9.09443359 7.69111328 9.09121094 8.81582031 9.08789062 9.97460938 C9.07951172 11.15861328 9.07113281 12.34261719 9.0625 13.5625 C9.05798828 14.75037109 9.05347656 15.93824219 9.04882812 17.16210938 C9.03699675 20.10812226 9.02051287 23.05403681 9 26 C7.02 25.67 5.04 25.34 3 25 C2.67 20.38 2.34 15.76 2 11 C0.35 14.3 -1.3 17.6 -3 21 C-4.65 21 -6.3 21 -8 21 C-9.65 17.7 -11.3 14.4 -13 11 C-13.33 15.62 -13.66 20.24 -14 25 C-15.98 25 -17.96 25 -20 25 C-20 17.08 -20 9.16 -20 1 C-17.03 1 -14.06 1 -11 1 C-9.35 4.63 -7.7 8.26 -6 12 C-4.02 8.04 -2.04 4.08 0 0 Z " fill="#757575" transform="translate(107,6)"/>
<path d="M0 0 C1.65 0.99 3.3 1.98 5 3 C3.35821735 7.77609498 0.73453298 11.79382904 -2 16 C-0.4221875 15.01 -0.4221875 15.01 1.1875 14 C4.26088036 12.2455602 6.39953014 11.38277659 10 12 C10.66 12.66 11.32 13.32 12 14 C11.62793814 18.34072171 9.77048085 22.07415115 8 26 C8.67546875 25.48308594 9.3509375 24.96617188 10.046875 24.43359375 C10.93890625 23.77488281 11.8309375 23.11617187 12.75 22.4375 C13.63171875 21.77621094 14.5134375 21.11492188 15.421875 20.43359375 C18 19 18 19 20.328125 19.28515625 C20.87984375 19.52105469 21.4315625 19.75695312 22 20 C22.495 21.98 22.495 21.98 23 24 C16.73 27.96 10.46 31.92 4 36 C2.35 34.68 0.7 33.36 -1 32 C-0.42365861 27.24518354 1.55068521 24.02951788 4 20 C3.32453125 20.30035156 2.6490625 20.60070312 1.953125 20.91015625 C1.06109375 21.29042969 0.1690625 21.67070313 -0.75 22.0625 C-1.63171875 22.44535156 -2.5134375 22.82820313 -3.421875 23.22265625 C-6.20461022 24.06169308 -7.39247573 24.26408242 -10 23 C-11.24829102 21.21386719 -11.24829102 21.21386719 -12 19 C-11.2331543 16.90942383 -11.2331543 16.90942383 -9.82421875 14.70703125 C-9.32599609 13.91232422 -8.82777344 13.11761719 -8.31445312 12.29882812 C-7.77755859 11.47833984 -7.24066406 10.65785156 -6.6875 9.8125 C-5.89956055 8.56436523 -5.89956055 8.56436523 -5.09570312 7.29101562 C-1.27840751 1.27840751 -1.27840751 1.27840751 0 0 Z " fill="#737373" transform="translate(152,22)"/>
<path d="M0 0 C0.99 0 1.98 0 3 0 C3.09796875 0.96679688 3.1959375 1.93359375 3.296875 2.9296875 C5.24393683 19.88255341 11.63782218 33.78453271 25 45 C28.20690676 47.29503871 31.48560662 49.21551765 35 51 C35.76828125 51.39058594 36.5365625 51.78117187 37.328125 52.18359375 C44.61541213 55.47735101 52.11325999 56.20081035 60 57 C60 57.99 60 58.98 60 60 C50.04197803 60.66288608 42.87049985 59.56811761 34 55 C33.20980469 54.62746094 32.41960937 54.25492188 31.60546875 53.87109375 C17.55891726 46.81091813 8.28908796 34.05503299 2 20 C0.01912815 13.37673244 -0.22524568 6.86999311 0 0 Z " fill="#7A7A7A" transform="translate(42,96)"/>
<path d="M0 0 C15.3137407 -0.97747281 28.7881248 4.55963926 40.640625 14.1328125 C50.5044108 23.49334392 59.32954335 37.14389594 60 51 C60.05647194 54.00242507 60.06254747 56.99772149 60 60 C59.01 60 58.02 60 57 60 C56.93683594 59.1028125 56.87367188 58.205625 56.80859375 57.28125 C55.31097342 42.02128705 50.30569041 29.67098498 39 19 C38.40960938 18.36835937 37.81921875 17.73671875 37.2109375 17.0859375 C27.38610987 7.26110987 13.40399359 3.94367196 0 3 C0 2.01 0 1.02 0 0 Z " fill="#787878" transform="translate(102,36)"/>
<path d="M0 0 C-0.49871064 4.45673159 -2.02004362 6.57687178 -5.0625 9.8125 C-6.16271484 10.99779297 -6.16271484 10.99779297 -7.28515625 12.20703125 C-8.13400391 13.09455078 -8.13400391 13.09455078 -9 14 C-10.32 13.34 -11.64 12.68 -13 12 C-11.57298983 8.86340338 -9.85240215 6.37619467 -7.625 3.75 C-7.03976563 3.04359375 -6.45453125 2.3371875 -5.8515625 1.609375 C-4 0 -4 0 0 0 Z " fill="#F6F6F6" transform="translate(56,38)"/>
<path d="M0 0 C-0.50482258 4.29475923 -1.76917204 6.33731829 -4.8125 9.375 C-5.84310547 10.43847656 -5.84310547 10.43847656 -6.89453125 11.5234375 C-9 13 -9 13 -11.26171875 12.7265625 C-12.12216797 12.36691406 -12.12216797 12.36691406 -13 12 C-12.40503246 8.67258892 -11.29522827 6.82909592 -9.0625 4.3125 C-8.53785156 3.71050781 -8.01320313 3.10851563 -7.47265625 2.48828125 C-4.86843203 -0.143574 -3.89165732 0 0 0 Z " fill="#F4F4F4" transform="translate(49,32)"/>
<path d="M0 0 C0.99 0 1.98 0 3 0 C3.66 5.94 4.32 11.88 5 18 C4.34 18.33 3.68 18.66 3 19 C-0.43440322 13.04703442 -0.13326437 6.66321844 0 0 Z " fill="#6B6B6B" transform="translate(42,96)"/>
<path d="M0 0 C4.01476736 6.02215104 4.28573751 11.99943109 4 19 C3.01 19 2.02 19 1 19 C0.63923999 16.02149379 0.28609584 13.04243216 -0.0625 10.0625 C-0.16626953 9.21236328 -0.27003906 8.36222656 -0.37695312 7.48632812 C-0.47041016 6.67744141 -0.56386719 5.86855469 -0.66015625 5.03515625 C-0.74918213 4.2862915 -0.83820801 3.53742676 -0.92993164 2.76586914 C-0.9530542 2.18313232 -0.97617676 1.60039551 -1 1 C-0.67 0.67 -0.34 0.34 0 0 Z " fill="#666666" transform="translate(158,77)"/>
<path d="M0 0 C3.96 0.33 7.92 0.66 12 1 C12 1.99 12 2.98 12 4 C9.79194476 4.0544452 7.58349446 4.09299283 5.375 4.125 C4.14523438 4.14820313 2.91546875 4.17140625 1.6484375 4.1953125 C-1.94316041 4.0030428 -4.66661175 3.30258556 -8 2 C-4.94736336 1.01879536 -3.05263664 1.01879536 0 2 C0 1.34 0 0.68 0 0 Z " fill="#7D7E7F" transform="translate(90,152)"/>
<path d="M0 0 C6.00477279 0.64916463 11.400781 2.85795003 17 5 C17 5.66 17 6.32 17 7 C10.22613615 6.72740991 5.65275661 5.80946641 0 2 C0 1.34 0 0.68 0 0 Z " fill="#6D6D6D" transform="translate(73,147)"/>
<path d="M0 0 C3.27914568 0.56536994 4.93380808 1.3703012 7 4 C7.70211894 5.65204456 8.36971413 7.31923769 9 9 C9.99 10.485 9.99 10.485 11 12 C7.612801 10.5611898 5.6405896 8.77880501 3.25 6 C2.63640625 5.29875 2.0228125 4.5975 1.390625 3.875 C0 2 0 2 0 0 Z " fill="#727272" transform="translate(53,130)"/>
<path d="M0 0 C3.63 0.33 7.26 0.66 11 1 C11 1.66 11 2.32 11 3 C7.37 3 3.74 3 0 3 C0 2.01 0 1.02 0 0 Z " fill="#6F7072" transform="translate(102,36)"/>
<path d="M0 0 C0.33 0 0.66 0 1 0 C1 2.97 1 5.94 1 9 C0.01 9 -0.98 9 -2 9 C-2.25 3.375 -2.25 3.375 0 0 Z " fill="#737577" transform="translate(161,87)"/>
<path d="M0 0 C0.99 0 1.98 0 3 0 C3.66 0.99 4.32 1.98 5 3 C4.34 4.32 3.68 5.64 3 7 C0 3.375 0 3.375 0 0 Z " fill="#838383" transform="translate(44,113)"/>
<path d="M0 0 C0.99 0 1.98 0 3 0 C3.1875 2.8125 3.1875 2.8125 3 6 C2.01 6.99 1.02 7.98 0 9 C0 6.03 0 3.06 0 0 Z " fill="#737578" transform="translate(42,96)"/>
</svg>
